<?xml version="1.0" encoding="UTF-8"?>
<svg id="Layer_2" data-name="Layer 2" xmlns="http://www.w3.org/2000/svg" viewBox="0 0 83.88 83.89">
  <defs>
    <style>
      .cls-1 {
        fill: #0fa1c1;
      }
    </style>
  </defs>
  <g id="OBJECTS">
    <g>
      <polygon class="cls-1" points="44.4 14.56 48.24 9.84 53.03 29.15 83.88 36.95 83.88 32.31 56.75 25.43 50.43 0 39.49 13.46 45.64 38.24 50.35 39.41 60.07 37.19 49.36 34.53 44.4 14.56"/>
      <polygon class="cls-1" points="34.53 34.53 14.56 39.49 9.84 35.65 29.15 30.85 36.65 0 32.03 0 25.43 27.14 0 33.45 13.46 44.4 38.24 38.24 39.59 32.83 37.19 23.82 34.53 34.53"/>
      <polygon class="cls-1" points="38.24 45.64 32.89 44.31 23.81 46.7 34.53 49.36 39.49 69.33 35.65 74.05 30.85 54.74 0 47.04 0 51.68 27.13 58.45 33.45 83.89 44.4 70.42 38.24 45.64"/>
      <polygon class="cls-1" points="49.36 49.36 69.32 44.4 74.05 48.24 54.74 53.04 47.25 83.89 51.87 83.89 58.45 56.75 83.88 50.43 70.42 39.49 45.64 45.64 44.48 50.81 46.7 60.07 49.36 49.36"/>
    </g>
  </g>
</svg>